<svg xmlns="http://www.w3.org/2000/svg" width="510" height="311" viewBox="0 0 510 311" version="1.1"><path d="M 138.264 0.718 C 139.784 0.947, 142.034 0.941, 143.264 0.704 C 144.494 0.467, 143.250 0.279, 140.500 0.286 C 137.750 0.294, 136.744 0.488, 138.264 0.718 M 164.264 0.718 C 165.784 0.947, 168.034 0.941, 169.264 0.704 C 170.494 0.467, 169.250 0.279, 166.500 0.286 C 163.750 0.294, 162.744 0.488, 164.264 0.718 M 12.807 166.750 C 11.045 168.802, 9.724 171, 10.253 171 C 10.457 171, 11.622 169.650, 12.842 168 C 15.252 164.740, 15.230 163.929, 12.807 166.750 M 247.667 250.667 C 247.300 251.033, 247.046 252.721, 247.102 254.417 L 247.205 257.500 248.026 254.007 C 248.881 250.367, 248.792 249.541, 247.667 250.667 M 329.272 260 C 329.272 262.475, 329.467 263.488, 329.706 262.250 C 329.944 261.012, 329.944 258.988, 329.706 257.750 C 329.467 256.512, 329.272 257.525, 329.272 260 M 415.136 258.668 C 415.061 259.861, 414.741 261.661, 414.424 262.668 C 413.880 264.402, 413.910 264.405, 414.990 262.721 C 415.618 261.743, 415.938 259.943, 415.702 258.721 C 415.273 256.502, 415.272 256.502, 415.136 258.668 M 333.079 265.250 C 332.989 267.250, 333.848 267.439, 336 265.890 C 337.282 264.968, 337.255 264.890, 335.815 265.349 C 334.888 265.645, 333.911 265.350, 333.644 264.694 C 333.376 264.037, 333.122 264.288, 333.079 265.250 M 331 277.750 C 331 278.163, 332.307 278.500, 333.905 278.500 C 335.502 278.500, 336.600 278.163, 336.345 277.750 C 336.091 277.337, 334.784 277, 333.441 277 C 332.098 277, 331 277.337, 331 277.750 M 330.310 285.500 C 330.315 288.800, 330.502 290.029, 330.725 288.232 C 330.947 286.435, 330.943 283.735, 330.715 282.232 C 330.486 280.729, 330.304 282.200, 330.310 285.500 M 92.686 290.526 C 89.590 294.147, 88.948 295.600, 89.276 298.243 L 89.680 301.500 89.840 297.924 C 89.948 295.506, 90.839 293.564, 92.592 291.924 C 94.845 289.817, 97.605 285.938, 96.785 286.033 C 96.628 286.051, 94.784 288.073, 92.686 290.526 M 194.991 299.771 C 195.597 301.020, 195.777 302.552, 195.392 303.175 C 194.962 303.870, 195.138 304.033, 195.845 303.595 C 197.387 302.643, 197.301 301.758, 195.445 299.441 C 193.954 297.580, 193.935 297.594, 194.991 299.771" stroke="none" fill="#e9a0a1" fill-rule="evenodd"/><path d="M 136.500 0.996 C 125.966 1.959, 116.481 3.947, 105.818 7.428 C 98.626 9.776, 86.356 14.957, 83 17.063 C 82.175 17.581, 80.552 18.418, 79.393 18.923 C 77.371 19.805, 71.802 23.426, 61.837 30.339 C 56.105 34.315, 43.260 46.437, 36.234 54.500 C 31.516 59.915, 21 74.394, 21 75.476 C 21 75.716, 19.743 78.069, 18.208 80.706 C 13.911 88.083, 7.868 102.826, 5.381 112 C 2.529 122.517, 0.171 137.550, 0.086 145.750 L -0 154 76.514 154 L 153.029 154 152.764 88.873 L 152.500 23.747 163.500 24.418 C 192.736 26.203, 223.385 39.854, 245.372 60.884 C 259.004 73.923, 271.602 94.100, 278.015 113.167 C 283.851 130.517, 286.443 154.369, 283.974 168 C 283.526 170.475, 282.871 174.525, 282.519 177 C 281.812 181.968, 276.236 200.918, 275.016 202.500 C 274.592 203.050, 273.910 204.588, 273.502 205.918 C 272.276 209.907, 259.953 230, 258.732 230 C 257.955 230, 257.923 230.323, 258.630 231.030 C 259.263 231.663, 264.775 231.952, 272.931 231.780 L 286.202 231.500 289.992 224 C 294.909 214.271, 298.889 204.641, 299.498 201 C 299.544 200.725, 300.323 198.250, 301.229 195.500 C 305.165 183.555, 306.368 173.921, 306.411 154 C 306.443 139.072, 306.030 132.390, 304.650 125.500 C 293.179 68.229, 252.938 23.625, 197 6.177 C 181.711 1.408, 156.046 -0.790, 136.500 0.996 M 157.953 53.934 C 157.927 54.795, 157.660 59.824, 157.360 65.109 C 156.749 75.877, 156.803 75.954, 165.003 75.986 C 175.283 76.026, 196.824 85.356, 206.394 93.912 C 220.147 106.208, 225.416 113.657, 232.275 130.500 C 234.047 134.850, 237.033 148.282, 236.944 151.500 C 236.914 152.600, 236.917 156.200, 236.951 159.500 C 237.157 179.454, 227.048 202.418, 211.844 216.533 C 205.681 222.254, 199.767 226.667, 195.595 228.656 C 193.618 229.599, 192 230.737, 192 231.185 C 192 231.633, 200.550 232, 211 232 C 221.827 232, 230 231.606, 230 231.085 C 230 230.581, 231.375 228.894, 233.055 227.335 C 238.447 222.330, 249.337 204.711, 252.730 195.500 C 259.070 178.289, 260.950 158.837, 258.028 140.691 C 255.695 126.209, 248.155 108.459, 238.987 95.869 C 233.603 88.476, 220.229 75.674, 212.596 70.608 C 201.860 63.481, 185.859 56.753, 175.178 54.872 C 161.493 52.462, 158.003 52.272, 157.953 53.934 M 158 134.948 L 158 160.920 126.072 161.210 C 95.597 161.487, 94.015 161.594, 91.322 163.571 C 87.669 166.251, 84.879 172.016, 80.951 185 C 73.962 208.099, 68.750 222.418, 66.919 223.550 C 64.408 225.102, 62.717 221.140, 56.440 199 C 52.357 184.597, 49.752 176.542, 48.857 175.550 C 48.386 175.028, 48 174.038, 48 173.350 C 48 172.663, 46.628 170.068, 44.952 167.584 C 42.727 164.287, 40.904 162.790, 38.202 162.039 C 29.385 159.591, 18.327 161.724, 13.941 166.720 C 9.922 171.297, 9.983 176.498, 14.149 184.500 C 17.115 190.198, 17.313 191.304, 18.088 206.500 C 18.866 221.762, 18.407 273.090, 17.434 279.582 C 17.180 281.277, 15.404 285.269, 13.486 288.453 C 8.126 297.355, 9.330 304.087, 16.981 307.990 C 20.280 309.673, 22.874 310, 32.940 310 C 46.652 310, 51.610 308.623, 54.302 304.066 C 56.936 299.606, 56.434 295.106, 52.643 289.222 C 48.665 283.048, 47.897 277.834, 48.257 259.457 C 48.457 249.286, 48.808 246.763, 50.223 245.348 C 51.854 243.717, 52.064 243.889, 54.143 248.562 C 55.351 251.278, 56.660 255.075, 57.052 257 C 57.445 258.925, 58.534 263.200, 59.473 266.500 C 60.412 269.800, 61.615 274.300, 62.147 276.500 C 67.530 298.773, 69.990 304.866, 73.641 304.968 C 75.496 305.020, 79.093 295.139, 84.006 276.500 C 84.441 274.850, 85.973 269.450, 87.410 264.500 C 94.329 240.676, 95.379 238.723, 97.311 246.068 C 98.227 249.548, 97.673 281.469, 96.620 285.929 C 96.304 287.264, 94.686 289.761, 93.023 291.476 C 88.706 295.930, 88.766 301.557, 93.178 305.869 C 96.854 309.464, 100.664 310.454, 110.737 310.433 C 117.845 310.418, 118.038 310.349, 121.487 306.583 C 126.474 301.139, 126.357 296.823, 121.060 290.806 L 117.121 286.330 115.893 273.415 C 114.541 259.188, 114.054 199.091, 115.257 194.800 L 116.013 192.100 120.757 197.208 C 127.079 204.017, 135.545 209.383, 144.186 212.057 C 150.216 213.924, 152.776 214.169, 161.385 213.703 C 172.076 213.125, 177.324 211.662, 185.548 206.966 C 195.158 201.480, 203.729 190.987, 208.270 179.150 C 210.031 174.561, 210.444 171.340, 210.469 162 C 210.497 151.702, 210.204 149.744, 207.668 143.265 C 203.052 131.470, 193.341 120.786, 181.962 114.980 C 178.154 113.038, 169.267 110.609, 162.250 109.592 L 158 108.976 158 134.948 M 443.500 198.839 C 434.862 200.267, 431 204.172, 431 211.481 C 431 214.203, 431.761 215.434, 435.051 218.040 C 438.389 220.684, 440.589 224.308, 447.551 238.634 C 452.198 248.196, 456 256.719, 456 257.574 C 456 258.429, 454.005 263.038, 451.568 267.815 C 449.130 272.592, 446.030 278.975, 444.679 282 C 442.056 287.874, 438.131 292, 435.167 292 C 432.713 292, 429.481 295.877, 429.140 299.229 C 428.792 302.646, 431.577 307.486, 434.712 308.915 C 436.022 309.512, 441.313 310, 446.470 310 C 455.032 310, 456.107 309.781, 458.840 307.481 C 461.291 305.419, 461.804 304.267, 461.667 301.134 C 461.575 299.030, 460.940 296.633, 460.256 295.808 C 457.524 292.517, 457.742 288.631, 461.045 281.716 C 462.809 278.022, 464.440 275, 464.669 275 C 464.898 275, 466.415 277.813, 468.042 281.250 C 471.266 288.066, 471.857 294.044, 469.500 296 C 467.116 297.979, 467.618 304.109, 470.411 307.121 C 473.318 310.256, 481.178 311.459, 492.301 310.473 C 505.927 309.264, 510 306.469, 510 298.326 C 510 294.503, 509.469 293.400, 505.978 289.979 C 503.084 287.141, 498.933 280.031, 491.172 264.614 L 480.387 243.193 485.943 232.274 C 493.016 218.376, 493.742 217.445, 498.150 216.626 C 502.270 215.859, 503.538 214.691, 504.528 210.744 C 506.822 201.604, 498.897 196.744, 484.608 198.530 C 477.075 199.471, 474 202.312, 474 208.330 C 474 211.043, 474.580 213.237, 475.500 214 C 476.325 214.685, 477 216.075, 477 217.089 C 477 219.712, 473.840 226, 472.521 226 C 471.912 226, 470.711 224.088, 469.853 221.750 C 468.387 217.758, 468.413 217.250, 470.282 213.381 C 472.810 208.147, 472.032 202.722, 468.413 200.351 C 465.676 198.558, 450.699 197.648, 443.500 198.839 M 152.619 239.250 C 150.830 240.865, 149.963 242.912, 149.551 246.500 C 148.611 254.671, 147.069 260.826, 142.786 273.500 C 137.175 290.104, 134.629 295.416, 131.066 297.953 C 124.304 302.768, 128.822 308.455, 139.431 308.484 C 150.516 308.514, 155.029 303.771, 149.454 297.952 C 144.797 293.091, 146.440 291.877, 157.222 292.212 C 167.696 292.538, 168.956 293.598, 164.537 298.365 C 161.593 301.542, 161.674 301.191, 163.136 304.399 C 164.994 308.476, 175.807 310.100, 187.114 307.999 C 192.119 307.070, 196 304.386, 196 301.856 C 196 301.348, 194.425 299.358, 192.500 297.433 C 190.575 295.508, 189 293.507, 189 292.985 C 189 292.113, 187.380 287.851, 175.784 258.221 C 171.101 246.254, 168.722 242.403, 164.078 239.274 C 159.798 236.389, 155.798 236.381, 152.619 239.250 M 214.123 238.100 C 212.266 238.663, 208.369 241.500, 205.463 244.406 C 192.236 257.634, 196.652 273.222, 216.768 284.307 C 223.130 287.812, 224.500 288.999, 224.500 291.004 C 224.500 294.107, 220.617 296.228, 216.500 295.374 C 211.831 294.405, 208.170 291.269, 205.456 285.912 C 203.489 282.032, 202.449 281, 200.502 281 C 197.360 281, 196.520 284.001, 197.490 291.767 C 198.720 301.609, 201.825 305.285, 210.953 307.706 C 221.053 310.384, 232.206 308.359, 238.254 302.748 C 243.943 297.471, 246.365 291.666, 246.335 283.382 C 246.312 277.192, 245.930 275.708, 243.404 272.006 C 240.354 267.535, 235.226 264.179, 226.395 260.875 C 220.921 258.827, 219.326 256.697, 220.499 253.002 C 220.848 251.904, 222.233 250.729, 223.577 250.391 C 226.292 249.710, 231.275 252.965, 236.331 258.725 C 239.729 262.594, 240.954 262.765, 243.702 259.750 C 247.291 255.811, 245.538 247.085, 239.843 240.534 C 238.071 238.497, 237.396 238.314, 234.875 239.193 C 232.889 239.886, 231.563 239.882, 230.719 239.182 C 228.864 237.643, 217.978 236.933, 214.123 238.100 M 255.401 238.316 C 250.032 241.318, 246.107 256.461, 249.396 261.482 C 250.304 262.867, 251.852 264, 252.836 264 C 254.725 264, 258.489 260.349, 261.341 255.750 C 262.279 254.238, 263.772 253, 264.660 253 C 266.107 253, 266.224 255.057, 265.795 272.919 L 265.315 292.837 261.658 296.287 C 257.413 300.290, 257.149 301.869, 260.250 304.720 C 262.338 306.640, 264.969 307.364, 274 308.503 C 279.052 309.140, 289.606 307.102, 291.308 305.160 C 294.226 301.831, 294.290 299.236, 291.499 297.407 C 286.604 294.200, 286 291.533, 286 273.131 C 286 263.799, 286.273 255.452, 286.607 254.582 C 287.638 251.894, 290.031 252.829, 291.574 256.523 C 294.605 263.777, 298.728 265.706, 303.097 261.915 C 305.028 260.239, 305.486 258.900, 305.431 255.095 C 305.353 249.795, 302.939 242.925, 300.074 239.849 C 298.295 237.940, 296.899 237.804, 277.519 237.657 C 266.157 237.571, 256.204 237.867, 255.401 238.316 M 328.400 237.958 C 308.175 238.532, 306 239.060, 306 243.400 C 306 244.585, 307.318 246.711, 308.929 248.124 L 311.857 250.694 311.960 272.776 L 312.064 294.858 309.032 298.311 C 307.364 300.210, 306 302.402, 306 303.182 C 306 306.605, 308.169 307, 326.957 307 C 337.163 307, 347.075 307.448, 348.984 307.995 C 350.892 308.543, 353.188 308.758, 354.085 308.473 C 356.697 307.644, 359.802 299.468, 360.555 291.437 C 361.463 281.755, 356.295 279.993, 351.941 288.500 C 349.005 294.236, 345.868 296.165, 338.461 296.788 C 334.799 297.097, 333.081 296.803, 332.176 295.712 C 330.548 293.750, 329.559 285.163, 330.428 280.531 C 331.035 277.297, 331.420 276.914, 333.784 277.189 C 335.931 277.439, 336.779 278.383, 338.109 282 C 340.080 287.362, 342.215 288.127, 344.687 284.355 C 346.154 282.116, 346.500 279.534, 346.500 270.822 C 346.500 261.113, 346.287 259.843, 344.333 257.889 C 341.398 254.953, 339.341 256.020, 337.949 261.199 C 336.690 265.883, 335.643 266.961, 332.329 266.985 C 329.604 267.004, 328.504 262.805, 329.494 256.158 C 330.421 249.926, 331.400 249, 337.057 249 C 343.590 249, 346.169 250.160, 349.053 254.393 C 352.505 259.462, 355.572 259.304, 357.004 253.984 C 357.726 251.303, 357.766 248.811, 357.123 246.484 C 356.594 244.568, 356.361 243, 356.606 243 C 356.851 243, 356.353 241.650, 355.500 240 C 354.215 237.514, 353.396 237.036, 350.724 237.208 C 348.951 237.322, 338.905 237.659, 328.400 237.958 M 364 240 C 361.342 242.658, 361.478 245.144, 364.455 248.357 C 367.819 251.987, 368.182 254.877, 367.817 275.105 L 367.500 292.679 364.548 296.935 C 361.789 300.912, 361.692 301.361, 363.064 303.806 C 365.842 308.754, 380.932 310.614, 388.500 306.941 C 392.422 305.038, 393.068 300.766, 389.937 297.433 C 386.993 294.299, 385.587 282.013, 387.906 279.694 C 390.653 276.947, 394.749 283.038, 395.712 291.304 C 397.396 305.754, 407.255 313.077, 418.391 308.151 C 424.918 305.264, 426.923 299.062, 421.850 297.452 C 419.441 296.688, 418.409 294.118, 417.460 286.523 C 416.817 281.382, 416.195 280.142, 412.296 276.243 C 407.928 271.876, 407.889 271.778, 409.681 269.655 C 410.682 268.470, 411.809 267.266, 412.187 266.980 C 415.476 264.491, 415.887 252.463, 412.895 246.282 C 409.293 238.842, 406.409 238, 384.540 238 C 367.333 238, 365.856 238.144, 364 240 M 388.250 249.662 C 386.641 250.311, 386.464 268, 388.066 268 C 392.760 268, 395.702 261.139, 393.868 254.468 C 392.532 249.609, 391.202 248.471, 388.250 249.662 M 154.657 268.281 C 153.918 270.052, 153.020 273.075, 152.662 275 L 152.009 278.500 157.255 278.500 C 162.250 278.500, 162.488 278.381, 162.251 276 C 161.893 272.411, 158.988 266.209, 157.375 265.590 C 156.508 265.258, 155.504 266.252, 154.657 268.281" stroke="none" fill="#ec3434" fill-rule="evenodd"/></svg>